Coordinates
version=1
nRows=25
nColumns=34
inDegrees=no

Units are S.I. units (second, meters, Newtons, ...)
If the header above contains a line with 'inDegrees', this indicates whether rotational values are in degrees (yes) or radians (no).

endheader
time	pelvis_tilt	pelvis_list	pelvis_rotation	pelvis_tx	pelvis_ty	pelvis_tz	hip_flexion_r	hip_adduction_r	hip_rotation_r	knee_angle_r	ankle_angle_r	subtalar_angle_r	mtp_angle_r	hip_flexion_l	hip_adduction_l	hip_rotation_l	knee_angle_l	ankle_angle_l	subtalar_angle_l	mtp_angle_l	lumbar_extension	lumbar_bending	lumbar_rotation	arm_flex_r	arm_add_r	arm_rot_r	elbow_flex_r	pro_sup_r	arm_flex_l	arm_add_l	arm_rot_l	elbow_flex_l	pro_sup_l
1.18	-0.330528	-0.0815442	0.100476	-0.397238	1.06237	-0.638546	0.799866	-0.148447	-0.284319	0.324143	-0.678094	0.0309195	-0.105186	0.780425	-0.169378	-0.333028	0.291153	-0.649686	0.279134	-0.105695	-0.420296	0.131414	-0.0384629	-1.01414	-0.251049	-0.0992632	1.11578	1.44704	-1.04216	-0.312575	-0.115913	1.39428	1.5072
1.19	-0.333956	-0.0850186	0.0989342	-0.391352	1.02901	-0.638038	0.85374	-0.148621	-0.256547	0.456171	-0.476827	0.00549709	-0.105182	0.837302	-0.186151	-0.303647	0.428869	-0.426763	0.273693	-0.10569	-0.423741	0.132645	-0.0362411	-1.02381	-0.239904	-0.0808905	1.10003	1.44759	-1.049	-0.295347	-0.104684	1.38619	1.50905
1.2	-0.340894	-0.0889418	0.0967899	-0.38656	0.996676	-0.637469	0.912331	-0.148641	-0.232271	0.582273	-0.299313	-0.0190522	-0.105177	0.900676	-0.201686	-0.275311	0.562172	-0.233639	0.265152	-0.105685	-0.428439	0.134109	-0.0334314	-1.02503	-0.230063	-0.0601001	1.08143	1.44814	-1.04676	-0.279479	-0.0921476	1.37341	1.51085
1.21	-0.351314	-0.0932829	0.0940595	-0.382931	0.965436	-0.63684	0.975489	-0.148563	-0.211486	0.702169	-0.146038	-0.0425367	-0.105173	0.970299	-0.215889	-0.247948	0.690618	-0.0707659	0.253583	-0.10568	-0.43443	0.135772	-0.030051	-1.01778	-0.221534	-0.0369227	1.0601	1.4487	-1.03542	-0.265009	-0.0782995	1.35603	1.51261
1.22	-0.364972	-0.0979308	0.0907845	-0.380308	0.935339	-0.636163	1.04277	-0.148533	-0.194095	0.81524	-0.0177241	-0.0644541	-0.105168	1.04541	-0.22852	-0.22139	0.813098	0.0614237	0.23929	-0.105675	-0.441842	0.137542	-0.0261414	-1.00211	-0.214353	-0.0114632	1.0364	1.44925	-1.01496	-0.252055	-0.063116	1.33433	1.51432
1.23	-0.38155	-0.102687	0.0870519	-0.378453	0.906679	-0.635446	1.11324	-0.148746	-0.179814	0.920701	0.0855307	-0.0840227	-0.105163	1.12447	-0.239247	-0.19545	0.928006	0.163663	0.222956	-0.10567	-0.451027	0.139257	-0.021754	-0.978195	-0.208597	0.0160622	1.01109	1.4498	-0.985453	-0.240844	-0.0465197	1.30894	1.51597
1.24	-0.400461	-0.107288	0.0829528	-0.377395	0.879943	-0.634775	1.18542	-0.149373	-0.16817	1.01777	0.16499	-0.10035	-0.105159	1.20515	-0.247748	-0.170061	1.03359	0.238629	0.205595	-0.105665	-0.462433	0.140689	-0.0169248	-0.946504	-0.204393	0.0453089	0.985363	1.45036	-0.947123	-0.231699	-0.0283533	1.2808	1.51755
1.25	-0.420963	-0.111466	0.078544	-0.377064	0.855324	-0.63419	1.25744	-0.150504	-0.158621	1.10575	0.223448	-0.112686	-0.105154	1.28478	-0.253812	-0.145377	1.12834	0.290799	0.188296	-0.105659	-0.476495	0.141586	-0.0116422	-0.907824	-0.201926	0.0758211	0.960737	1.45091	-0.900413	-0.225005	-0.00833284	1.25109	1.51906
1.26	-0.442432	-0.115001	0.0738196	-0.377399	0.832657	-0.633653	1.32737	-0.152119	-0.150679	1.18412	0.26487	-0.120675	-0.10515	1.36084	-0.257428	-0.121755	1.21136	0.32559	0.171923	-0.105654	-0.493421	0.14172	-0.00582741	-0.863272	-0.201438	0.107097	0.938872	1.45146	-0.845954	-0.221147	0.01398	1.22108	1.52048
1.27	-0.464351	-0.117677	0.068719	-0.378093	0.811852	-0.633189	1.39362	-0.154067	-0.143968	1.25267	0.293725	-0.12448	-0.105145	1.43153	-0.258832	-0.0996556	1.28257	0.348381	0.156971	-0.105649	-0.512972	0.140934	0.000662296	-0.814179	-0.2032	0.138686	0.921278	1.45202	-0.784523	-0.220444	0.0391388	1.19185	1.52185
1.28	-0.486377	-0.119366	0.0631613	-0.378909	0.792844	-0.63281	1.45512	-0.156127	-0.1382	1.31164	0.314272	-0.124719	-0.10514	1.49587	-0.258448	-0.0794974	1.34268	0.363799	0.143604	-0.105644	-0.53448	0.13914	0.0079862	-0.76191	-0.207466	0.17029	0.909025	1.45257	-0.716963	-0.223089	0.0676995	1.16421	1.52319
1.29	-0.508336	-0.120051	0.0571425	-0.379667	0.775512	-0.632538	1.51143	-0.158095	-0.133161	1.36174	0.330007	-0.122272	-0.105136	1.55372	-0.25676	-0.0615128	1.39299	0.375359	0.13176	-0.105639	-0.556985	0.136376	0.0162738	-0.707673	-0.214437	0.201791	0.902549	1.45313	-0.644085	-0.229088	0.100071	1.13852	1.52458
1.3	-0.530174	-0.119935	0.0507729	-0.380275	0.759712	-0.63241	1.56263	-0.159884	-0.12874	1.40405	0.343398	-0.118044	-0.105131	1.60556	-0.254147	-0.0456546	1.43511	0.385369	0.121243	-0.105634	-0.579374	0.132868	0.0255731	-0.652356	-0.224223	0.233232	0.901571	1.45368	-0.566592	-0.238212	0.136365	1.11468	1.52611
1.31	-0.551863	-0.119384	0.044286	-0.380676	0.745414	-0.632437	1.60915	-0.161563	-0.124945	1.43981	0.355897	-0.112819	-0.105126	1.65229	-0.250821	-0.031608	1.47066	0.395064	0.111784	-0.105629	-0.600548	0.129045	0.0358303	-0.596425	-0.236819	0.264729	0.905108	1.45423	-0.485062	-0.249981	0.176257	1.09216	1.52792
1.32	-0.573214	-0.118844	0.0379568	-0.380746	0.732658	-0.632584	1.65144	-0.163285	-0.121869	1.47028	0.36816	-0.107195	-0.105122	1.69478	-0.246882	-0.0189177	1.50111	0.404904	0.103133	-0.105624	-0.61967	0.125403	0.046869	-0.539844	-0.252059	0.296371	0.911546	1.45479	-0.399989	-0.263711	0.218867	1.07005	1.53012
1.33	-0.593791	-0.118661	0.0320224	-0.380438	0.721298	-0.632807	1.68964	-0.165135	-0.119611	1.4966	0.380325	-0.101585	-0.105117	1.73347	-0.2425	-0.00714351	1.5277	0.414935	0.0951794	-0.105619	-0.636471	0.122324	0.0583869	-0.482074	-0.269566	0.328095	0.918784	1.45534	-0.311877	-0.278608	0.262671	1.04728	1.53281
1.34	-0.612676	-0.11903	0.0266026	-0.379714	0.711224	-0.633061	1.72339	-0.167049	-0.118205	1.51977	0.392273	-0.096236	-0.105113	1.76816	-0.238026	0.00401512	1.55148	0.42509	0.0880297	-0.105614	-0.651289	0.119899	0.0699489	-0.422179	-0.288709	0.35956	0.924463	1.4559	-0.221323	-0.29387	0.305516	1.02276	1.53597
1.35	-0.628603	-0.119972	0.0216908	-0.378519	0.702401	-0.633292	1.75189	-0.168815	-0.117596	1.54063	0.403816	-0.0912502	-0.105108	1.79808	-0.233979	0.0146863	1.57326	0.435349	0.0819893	-0.105609	-0.664977	0.117956	0.080993	-0.359047	-0.308609	0.39006	0.926299	1.45645	-0.129075	-0.308772	0.34476	0.995618	1.53949
1.36	-0.640223	-0.121393	0.0172019	-0.3768	0.694875	-0.633443	1.77415	-0.170134	-0.117672	1.55978	0.414796	-0.086643	-0.105103	1.82214	-0.230944	0.0248779	1.59361	0.445775	0.0774672	-0.105604	-0.678606	0.116172	0.0908832	-0.291678	-0.328195	0.418505	0.922453	1.457	-0.0360567	-0.322714	0.377503	0.965381	1.54306
1.37	-0.646406	-0.123189	0.0130028	-0.374515	0.688709	-0.633469	1.78927	-0.170652	-0.11833	1.57761	0.425127	-0.0824452	-0.105099	1.83934	-0.229473	0.0345853	1.61292	0.45648	0.0748683	-0.105599	-0.693143	0.114225	0.0990321	-0.219466	-0.346295	0.443446	0.911872	1.45756	0.0566386	-0.335238	0.400837	0.932232	1.54615
1.38	-0.646454	-0.125335	0.0089258	-0.371653	0.683944	-0.633344	1.7966	-0.169953	-0.119532	1.59428	0.434808	-0.0788101	-0.105094	1.84906	-0.230016	0.0439094	1.63136	0.467574	0.0745032	-0.105594	-0.709226	0.111897	0.105063	-0.142415	-0.361776	0.463155	0.894548	1.45811	0.147804	-0.346024	0.412127	0.897184	1.54804
1.39	-0.640284	-0.127874	0.00477342	-0.368248	0.68055	-0.633064	1.79602	-0.167608	-0.121278	1.6097	0.443863	-0.0760051	-0.10509	1.85119	-0.232881	0.0530201	1.64893	0.479134	0.0765277	-0.105589	-0.726959	0.109087	0.108954	-0.061308	-0.373692	0.475681	0.871678	1.45867	0.236272	-0.354847	0.409449	0.862126	1.54784
1.4	-0.62845	-0.130867	0.000338853	-0.364415	0.678404	-0.632653	1.78798	-0.163236	-0.123566	1.62367	0.452299	-0.07438	-0.105085	1.84623	-0.238196	0.0621104	1.66547	0.491175	0.0808972	-0.105584	-0.74586	0.10578	0.111068	0.0223017	-0.381458	0.479093	0.845675	1.45922	0.32106	-0.361543	0.392002	0.829722	1.54467
1.41	-0.612058	-0.134347	-0.00455896	-0.360307	0.67735	-0.632126	1.77352	-0.15657	-0.126352	1.6359	0.460083	-0.0743165	-0.10508	1.83523	-0.245869	0.0713467	1.68073	0.503635	0.0873422	-0.105579	-0.764919	0.102016	0.112083	0.106277	-0.384987	0.471862	0.819998	1.45977	0.401504	-0.365978	0.360459	0.803121	1.53784
1.42	-0.592609	-0.138275	-0.0100123	-0.356041	0.677249	-0.631498	1.75414	-0.147544	-0.129508	1.64612	0.467134	-0.0761602	-0.105076	1.81958	-0.255547	0.080809	1.69441	0.516348	0.0953569	-0.105574	-0.782703	0.0978847	0.112812	0.188212	-0.384777	0.453318	0.798827	1.46033	0.477331	-0.368064	0.317159	0.785531	1.5271
